<svg width="1396" height="381" viewBox="0 0 1396 381" fill="none" xmlns="http://www.w3.org/2000/svg">
<path d="M490.737 277.548C511.886 277.548 520.295 269.649 523.098 266.336C528.704 261.495 532.526 253.086 525.901 246.206C520.295 240.346 513.67 238.307 505.771 243.403C502.968 245.187 497.107 248.754 491.246 248.754C467.549 248.754 449.202 228.879 449.457 205.437C449.967 181.994 469.333 164.922 492.775 163.647C497.107 163.393 503.222 164.412 506.79 165.941C517.747 170.782 523.607 169.763 527.939 162.628C532.526 155.494 529.723 146.575 523.098 141.989C515.199 136.128 503.987 134.344 493.285 134.344C453.789 134.344 420.918 165.431 420.409 204.927C419.899 244.423 451.496 277.548 490.737 277.548Z" fill="#282526"/>
<path d="M565.717 81.8531C555.27 81.8531 546.606 90.007 546.606 100.454C546.606 110.902 554.76 119.565 565.207 119.565C575.655 119.565 584.318 111.411 584.318 100.964C584.318 90.5166 576.164 81.8531 565.717 81.8531ZM581.006 259.202V152.691C581.006 140.969 573.871 134.344 564.952 134.344C556.034 134.344 548.39 140.969 548.39 152.691V259.202C548.39 271.178 556.034 277.548 564.952 277.548C573.871 277.548 581.006 271.178 581.006 259.202Z" fill="#282526"/>
<path d="M636.503 262.769C643.383 274.236 659.181 277.548 673.96 277.548C705.557 277.548 731.802 246.716 731.802 207.22C732.057 167.724 706.576 134.344 674.979 134.344C657.652 134.344 640.834 145.046 636.503 151.926C636.503 140.46 629.113 134.344 620.45 134.344C611.531 134.344 603.632 140.969 603.632 152.691L603.887 312.457C603.887 324.179 611.531 330.549 620.45 330.549C629.368 330.549 636.503 324.179 636.503 312.457V262.769ZM667.08 248.245C646.44 248.245 635.229 228.624 635.229 206.201C635.229 182.758 645.931 163.138 667.08 163.138C686.955 163.138 699.186 182.758 699.186 206.201C699.186 229.898 688.484 248.245 667.08 248.245Z" fill="#282526"/>
<path d="M866.641 259.202V185.052C866.641 165.941 862.309 149.378 841.924 139.695C826.89 131.796 799.116 131.541 783.063 147.34V94.084C783.063 82.3627 775.928 75.7376 767.01 75.7376C758.091 75.7376 750.447 82.3627 750.447 94.084V259.202C750.447 271.178 758.091 277.548 767.01 277.548C775.928 277.548 783.063 271.178 783.063 259.202V203.908C783.063 187.345 782.299 173.84 796.313 164.922C802.683 160.59 814.914 160.335 821.539 164.667C832.242 171.547 833.77 182.249 833.77 191.932V259.202C833.77 271.178 841.415 277.548 850.333 277.548C859.252 277.548 866.641 271.178 866.641 259.202Z" fill="#282526"/>
<path d="M982.572 195.754H919.379C919.379 179.191 931.355 162.119 950.721 162.119C971.361 162.119 982.572 177.407 982.572 195.754ZM990.726 239.581C976.457 250.793 963.971 252.577 951.23 251.557C932.884 251.048 919.124 235.249 919.634 217.922H982.572C992.765 217.922 1007.8 218.687 1012.13 212.571C1017.74 204.927 1012.13 185.052 1008.31 175.369C997.606 148.104 977.986 134.344 949.192 134.344C910.715 134.344 885.489 166.45 885.489 205.946C885.489 245.442 907.913 277.548 949.192 277.548C967.793 277.548 989.707 276.019 1009.07 258.692C1013.91 254.36 1014.17 244.932 1009.58 240.091C1004.74 234.74 998.116 233.721 990.726 239.581Z" fill="#282526"/>
<path d="M1093.77 134.599C1082.82 132.815 1074.41 138.421 1065.49 148.614C1063.96 139.44 1057.59 134.344 1049.69 134.344C1040.77 134.344 1033.13 140.969 1033.13 152.691V259.202C1033.13 271.178 1040.77 277.548 1049.69 277.548C1058.61 277.548 1065.74 271.178 1065.74 259.202V210.278C1065.74 194.989 1064.22 185.306 1080.52 172.056C1093.26 161.609 1102.44 162.883 1106.26 155.748C1108.81 151.671 1107.79 146.83 1106.26 143.517C1103.46 138.166 1098.87 135.363 1093.77 134.599Z" fill="#282526"/>
<path d="M1212.2 149.378C1203.79 139.186 1189.78 134.344 1174.75 134.344C1143.15 134.344 1117.16 165.176 1117.16 204.672C1116.9 244.168 1142.13 276.529 1173.73 277.548C1191.05 278.058 1206.34 269.649 1212.2 257.673C1211.18 270.668 1219.08 277.548 1228.51 277.548C1237.43 277.548 1244.82 271.178 1244.82 259.202V94.084C1244.82 82.3627 1237.43 75.7376 1228.51 75.7376C1219.59 75.7376 1212.2 82.3627 1212.2 94.084V149.378ZM1181.63 163.647C1202.27 163.647 1213.48 183.268 1213.48 205.691C1213.48 229.389 1202.77 248.754 1181.63 248.754C1161.75 248.754 1149.77 229.389 1149.77 205.691C1149.77 182.249 1160.22 163.647 1181.63 163.647Z" fill="#282526"/>
<path d="M1285.11 81.8531C1274.66 81.8531 1266 90.007 1266 100.454C1266 110.902 1274.15 119.565 1284.6 119.565C1295.05 119.565 1303.71 111.411 1303.71 100.964C1303.71 90.5166 1295.56 81.8531 1285.11 81.8531ZM1300.4 259.202V152.691C1300.4 140.969 1293.26 134.344 1284.35 134.344C1275.43 134.344 1267.78 140.969 1267.78 152.691V259.202C1267.78 271.178 1275.43 277.548 1284.35 277.548C1293.26 277.548 1300.4 271.178 1300.4 259.202Z" fill="#282526"/>
<path d="M1366.09 136.892V111.921C1366.09 100.199 1359.21 93.5744 1350.29 93.5744C1341.37 93.5744 1333.73 100.199 1333.73 111.921V136.892H1325.32C1318.18 136.892 1311.05 143.517 1311.05 151.417C1311.05 159.316 1316.91 165.686 1325.32 165.686H1333.47V259.202C1333.47 271.178 1341.12 277.548 1350.04 277.548C1358.95 277.548 1366.09 271.178 1366.09 259.202V165.686H1381.38C1390.04 165.686 1395.65 159.316 1395.65 151.417C1395.65 143.517 1388.77 136.892 1381.38 136.892H1366.09Z" fill="#282526"/>
<circle cx="565.5" cy="100.5" r="24.5" fill="#FF007A"/>
<circle cx="1284.5" cy="100.5" r="24.5" fill="#FF007A"/>
<circle cx="190.5" cy="190.5" r="190.5" fill="#FF007A"/>
<path d="M268.344 127.313C265.773 129.137 262.767 130.247 259.637 130.526C256.508 130.806 253.371 130.245 250.554 128.903C247.737 127.56 245.342 125.485 243.62 122.894C241.898 120.302 240.912 117.29 240.764 114.17C240.616 111.051 241.313 107.938 242.78 105.158C244.248 102.378 246.433 100.032 249.107 98.3642C251.782 96.6966 254.848 95.7687 257.986 95.6773C261.125 95.586 264.219 96.3345 266.948 97.8449L297.059 76.4713L307.528 78.1778L305.685 88.6237L298.706 87.486L297.477 94.4499L290.498 93.3123L289.269 100.276L282.29 99.1385L281.061 106.102L275.574 109.997C276.13 113.249 275.746 116.602 274.466 119.667C273.186 122.733 271.063 125.384 268.344 127.313ZM257.052 120.099C258.14 119.327 258.881 118.159 259.111 116.853C259.342 115.547 259.043 114.21 258.28 113.135C257.518 112.061 256.354 111.338 255.045 111.124C253.736 110.911 252.389 111.225 251.301 111.998C250.213 112.77 249.472 113.938 249.241 115.244C249.011 116.55 249.31 117.887 250.072 118.962C250.835 120.036 251.999 120.759 253.308 120.973C254.616 121.186 255.963 120.872 257.052 120.099Z" fill="white"/>
<path d="M193.207 96.1451L206.356 99.5L198.675 133.855L185.526 130.5L193.207 96.1451Z" fill="white"/>
<path d="M244.134 104.642L242.768 117.5L192.64 109.182L193.207 96.1451L244.134 104.642Z" fill="white"/>
<path fill-rule="evenodd" clip-rule="evenodd" d="M136.967 145.256C151.032 134.847 170.109 129 190 129C209.891 129 228.968 134.847 243.033 145.256C255.012 154.12 262.52 165.674 264.484 178H287.5L298 220V237.1C298 274.54 249.552 312 190 312C130.448 312 82 274.54 82 237.1V219.5L92.5 178H115.516C117.48 165.674 124.988 154.12 136.967 145.256ZM135.787 178H244.213C242.38 169.631 237.039 161.835 228.834 155.763C218.535 148.141 204.566 143.86 190 143.86C175.434 143.86 161.465 148.141 151.166 155.763C142.961 161.835 137.62 169.631 135.787 178ZM166 224C166 233.941 157.941 242 148 242C138.059 242 130 233.941 130 224C130 214.059 138.059 206 148 206C157.941 206 166 214.059 166 224ZM232 242C241.941 242 250 233.941 250 224C250 214.059 241.941 206 232 206C222.059 206 214 214.059 214 224C214 233.941 222.059 242 232 242Z" fill="white"/>
<path d="M145 268C148 271 159 283.5 188.5 283.5C218 283.5 231 271 234 268" stroke="#FF007A" stroke-width="9" stroke-linecap="round"/>
<path d="M92.5 223C86.5326 223 80.8097 220.629 76.5901 216.41C72.3705 212.19 70 206.467 70 200.5C70 194.533 72.3705 188.81 76.5901 184.59C80.8097 180.371 86.5326 178 92.5 178L92.5 200.5L92.5 223Z" fill="white"/>
<path d="M287.5 223C293.467 223 299.19 220.629 303.41 216.41C307.629 212.19 310 206.467 310 200.5C310 194.533 307.629 188.81 303.41 184.59C299.19 180.371 293.467 178 287.5 178L287.5 200.5L287.5 223Z" fill="white"/>
</svg>
